<svg width="328" height="236" viewBox="0 0 328 236" fill="none" xmlns="http://www.w3.org/2000/svg">
<g clip-path="url(#clip0_6792_82615)">
<path d="M68.3298 137.292L226.921 16.0007L249.251 226.357L68.3298 137.292Z" fill="black" stroke="black" stroke-width="0.25" stroke-miterlimit="10" stroke-linecap="round" stroke-linejoin="round"/>
<path d="M255.849 236L228.19 23.8678L217.787 31.4802V31.7339H218.04L242.654 218.491L69.3447 144.397L57.4186 139.323L46 134.501L47.2687 146.935L255.849 236Z" fill="#C4CFD4" stroke="black" stroke-width="0.25" stroke-miterlimit="10" stroke-linecap="round" stroke-linejoin="round"/>
<path d="M79.4947 136.785H79.241L228.19 23.8676L256.102 236L265.999 228.387L236.31 3.56787L67.5686 131.71L79.4947 136.785Z" fill="#8B9DA6" stroke="black" stroke-width="0.25" stroke-miterlimit="10" stroke-linecap="round" stroke-linejoin="round"/>
<path d="M242.654 218.491L240.877 205.804L67.8222 131.71L236.31 3.56744L224.384 -1L46 134.501L242.654 218.491Z" fill="white" stroke="black" stroke-width="0.25" stroke-miterlimit="10" stroke-linecap="round" stroke-linejoin="round"/>
<path d="M199.77 57.6155C198.502 57.8693 198.755 59.8992 200.024 59.6455C201.547 59.3918 201.039 57.3618 199.77 57.6155Z" fill="white"/>
<path d="M211.949 51.2718C209.411 51.5255 209.919 55.8392 212.456 55.3317C215.247 55.078 214.74 51.018 211.949 51.2718Z" fill="white"/>
<path d="M224.892 188.802C223.623 189.056 223.877 191.086 225.145 190.832C226.668 190.832 226.414 188.802 224.892 188.802Z" fill="white"/>
<path d="M222.352 65.4822C222.352 65.4822 225.651 62.1835 232.248 62.4372C244.682 62.691 246.458 80.1995 246.458 80.1995L243.159 55.5861L221.844 60.9147L222.352 65.4822Z" fill="black" stroke="black" stroke-width="0.25" stroke-miterlimit="10" stroke-linecap="round" stroke-linejoin="round"/>
<path d="M229.203 33.2561L227.934 23.8674L217.784 31.7336C218.038 31.7336 225.143 26.9124 229.203 33.2561Z" fill="black" stroke="black" stroke-width="0.25" stroke-miterlimit="10"/>
<path d="M75.181 126.127C75.181 126.127 71.8823 133.486 81.5247 135.009C91.4208 136.531 79.241 137.039 79.241 137.039L67.5686 131.964L75.181 126.127Z" fill="black" stroke="black" stroke-width="0.25" stroke-miterlimit="10" stroke-linecap="round" stroke-linejoin="round"/>
<path d="M241.385 209.102C241.385 209.102 240.37 216.461 231.235 213.416L242.653 218.237L241.385 209.102Z" fill="black" stroke="black" stroke-width="0.25" stroke-miterlimit="10" stroke-linecap="round" stroke-linejoin="round"/>
<path d="M139.63 117.5C132.018 121.56 124.913 126.127 117.808 131.202C117.047 131.71 116.285 132.217 115.778 132.725C111.464 135.77 115.017 142.367 119.33 141.352C115.778 146.681 112.479 152.263 109.942 158.353C104.359 170.787 101.568 185.758 110.449 197.43C130.241 223.566 168.557 209.61 191.648 196.923C202.305 191.087 212.202 184.235 221.844 176.877C221.59 176.623 221.083 176.369 220.829 176.115C217.784 174.339 214.739 173.07 211.694 172.563C195.454 184.235 178.453 194.893 158.915 200.221C146.989 203.52 133.033 204.535 122.629 196.669C112.225 188.549 112.733 176.369 117.3 165.204C119.584 159.368 122.375 154.04 125.674 148.965C126.435 153.278 133.54 153.786 135.063 148.711C136.078 145.412 137.093 142.113 138.361 138.815C138.361 138.561 138.615 138.307 138.615 138.053C138.869 137.292 139.123 136.531 139.376 136.023C140.138 134.501 140.899 133.232 141.66 131.71C142.929 129.426 144.197 127.142 145.72 124.859C149.019 120.291 144.451 114.963 139.63 117.5Z" fill="#08CFAB" stroke="black" stroke-width="0.25" stroke-miterlimit="10" stroke-linecap="round" stroke-linejoin="round"/>
<path d="M118.82 192.355C132.776 214.178 168.047 205.55 196.213 194.132C205.094 188.803 213.721 182.967 221.841 176.623C221.587 176.369 221.08 176.116 220.826 175.862C217.781 174.086 214.736 172.817 211.691 172.309C195.452 184.236 178.451 194.893 158.912 200.222C146.986 203.52 133.03 204.535 122.626 196.669C121.104 195.147 119.835 193.878 118.82 192.355Z" fill="black" stroke="black" stroke-width="0.25" stroke-miterlimit="10" stroke-linecap="round" stroke-linejoin="round"/>
<path d="M198.756 66.2427C192.413 69.7951 186.323 73.6013 180.233 77.915C179.472 78.4225 178.964 78.93 178.203 79.4375C177.695 79.6912 177.442 79.945 176.934 80.4525C174.397 82.2287 171.859 84.0049 169.575 85.7812C169.068 86.2887 168.56 86.5424 168.053 87.0499C164.247 90.0949 160.694 93.3936 156.888 96.946C154.351 99.4835 155.366 103.797 158.918 104.812C160.441 105.066 161.963 104.812 163.232 103.797C169.829 97.7073 176.68 92.1248 184.039 86.7962C184.546 86.5424 185.054 86.0349 185.308 85.7812C199.264 76.1388 213.981 67.7652 230.221 63.1977C241.639 60.1528 255.342 59.1378 265.238 66.7502C275.388 74.6163 274.88 86.2887 270.567 97.1998C268.283 102.782 265.492 107.857 262.447 112.932C261.685 108.872 254.834 108.111 253.312 113.186C252.297 116.485 271.582 128.918 272.089 128.411C276.403 125.366 272.85 119.276 268.79 120.037C272.343 114.962 275.388 109.38 277.925 103.543C283 91.3636 286.045 77.1538 277.418 65.7352C258.133 40.3605 221.34 53.8091 198.756 66.2427Z" fill="#08CFAB" stroke="black" stroke-width="0.25" stroke-miterlimit="10" stroke-linecap="round" stroke-linejoin="round"/>
<path d="M244.178 145.919C243.924 146.426 243.924 146.68 244.178 146.68V145.919Z" fill="black" stroke="black" stroke-width="0.25" stroke-miterlimit="10" stroke-linecap="round" stroke-linejoin="round"/>
<path d="M267.525 68.5261C275.391 76.3923 274.63 87.0496 270.57 96.9457C268.286 102.528 265.495 107.603 262.45 112.678C261.689 108.618 255.091 108.111 253.315 112.932C252.808 114.454 252.046 115.977 251.539 117.499L254.33 137.799C263.211 133.485 267.779 130.948 272.346 128.41C275.391 126.888 274.63 123.082 272.854 121.305C272.346 120.798 271.839 120.544 271.077 120.29C270.824 120.29 270.57 120.037 270.316 120.037H270.062C269.809 120.037 269.301 120.037 269.047 120.037C269.047 119.783 269.301 119.783 269.301 119.529C272.092 115.469 274.376 111.409 276.406 107.096C278.69 93.647 278.436 78.1685 267.525 68.5261Z" fill="black" stroke="black" stroke-width="0.25" stroke-miterlimit="10" stroke-linecap="round" stroke-linejoin="round"/>
</g>
<defs>
<clipPath id="clip0_6792_82615">
<rect width="328" height="236" fill="white"/>
</clipPath>
</defs>
</svg>
