<svg width="40" height="40" viewBox="0 0 40 40" fill="none" xmlns="http://www.w3.org/2000/svg">
<path fill-rule="evenodd" clip-rule="evenodd" d="M26.1667 8H14.8333C13.2685 8 12 9.30477 12 10.9143V32.2857C12 33.8952 13.2685 35.2 14.8333 35.2H26.1667C27.7315 35.2 29 33.8952 29 32.2857V10.9143C29 9.30477 27.7315 8 26.1667 8ZM20.365 29.117C19.3218 29.117 18.4761 29.9627 18.4761 31.0059V31.1139C18.4761 32.1571 19.3218 33.0027 20.365 33.0027C21.4082 33.0027 22.2539 32.1571 22.2539 31.1139V31.0059C22.2539 29.9627 21.4082 29.117 20.365 29.117Z" fill="#54F4BB"/>
</svg>
